<svg xmlns="http://www.w3.org/2000/svg"  viewBox="0 0 64 64" width="48px" height="48px"><path d="M 32 10 C 19.85 10 10 19.85 10 32 C 10 44.15 19.85 54 32 54 C 44.15 54 54 44.15 54 32 C 54 19.85 44.15 10 32 10 z M 32 14 C 41.941 14 50 22.059 50 32 C 50 41.941 41.941 50 32 50 C 22.059 50 14 41.941 14 32 C 14 22.059 22.059 14 32 14 z M 32 16 C 30.896 16 30 16.895 30 18 L 30 30 L 20 30 C 18.895 30 18 30.896 18 32 C 18 33.104 18.895 34 20 34 L 32 34 C 33.104 34 34 33.105 34 32 L 34 18 C 34 16.895 33.104 16 32 16 z"/></svg>