<?xml version="1.0" standalone="no"?>
<!DOCTYPE svg PUBLIC "-//W3C//DTD SVG 20010904//EN"
 "http://www.w3.org/TR/2001/REC-SVG-20010904/DTD/svg10.dtd">
<svg version="1.0" xmlns="http://www.w3.org/2000/svg"
 width="700.000000pt" height="700.000000pt" viewBox="0 0 700.000000 700.000000"
 preserveAspectRatio="xMidYMid meet">
<metadata>
Created by potrace 1.14, written by Peter Selinger 2001-2017
</metadata>
<g transform="translate(0.000000,700.000000) scale(0.100000,-0.100000)"
fill="#000000" stroke="none">
<path d="M3030 5335 l0 -535 200 0 199 0 3 145 3 145 89 -145 89 -145 178 0
179 0 0 535 0 535 -200 0 -199 0 -3 -127 -3 -128 -79 128 -79 127 -189 0 -188
0 0 -535z"/>
<path d="M1944 5257 c-97 -38 -176 -121 -204 -213 -17 -56 -9 -179 14 -229 13
-27 223 -244 655 -677 l636 -638 -636 -637 c-424 -425 -642 -651 -655 -678
-15 -31 -19 -62 -19 -135 0 -81 4 -102 25 -144 32 -62 84 -114 146 -146 42
-21 63 -25 144 -25 73 0 104 4 135 19 27 13 253 231 678 655 l637 636 638
-636 c424 -424 650 -642 677 -655 31 -15 62 -19 135 -19 81 0 102 4 144 25 62
32 114 84 146 146 21 42 25 63 25 144 0 73 -4 104 -19 135 -13 27 -231 253
-655 678 l-636 637 636 638 c424 424 642 650 655 677 15 31 19 62 19 135 0 81
-4 102 -25 144 -32 62 -84 114 -146 146 -42 21 -63 25 -144 25 -73 0 -104 -4
-135 -19 -27 -13 -253 -231 -677 -655 l-638 -636 -637 636 c-430 429 -651 642
-678 655 -49 23 -194 30 -241 11z"/>
<path d="M1425 3770 c-72 -28 -119 -71 -154 -142 -100 -199 52 -430 274 -416
122 7 228 91 261 205 67 231 -158 439 -381 353z"/>
<path d="M5363 3769 c-135 -52 -211 -209 -169 -352 46 -157 223 -246 376 -188
76 29 123 71 159 143 78 155 6 337 -157 398 -66 25 -142 25 -209 -1z"/>
<path d="M3403 1802 c-150 -54 -230 -224 -174 -372 29 -76 71 -123 143 -159
50 -25 73 -31 128 -31 204 0 342 201 270 394 -53 142 -223 219 -367 168z"/>
</g>
</svg>
