<?xml version="1.0" standalone="no"?>
<!DOCTYPE svg PUBLIC "-//W3C//DTD SVG 20010904//EN"
 "http://www.w3.org/TR/2001/REC-SVG-20010904/DTD/svg10.dtd">
<svg version="1.0" xmlns="http://www.w3.org/2000/svg"
 width="700.000000pt" height="700.000000pt" viewBox="0 0 700.000000 700.000000"
 preserveAspectRatio="xMidYMid meet">
<metadata>
Created by potrace 1.14, written by Peter Selinger 2001-2017
</metadata>
<g transform="translate(0.000000,700.000000) scale(0.100000,-0.100000)"
fill="#000000" stroke="none">
<path d="M515 6984 c-188 -40 -362 -175 -443 -344 -78 -163 -72 101 -72 -3140
0 -3240 -6 -2977 72 -3139 57 -120 169 -232 289 -289 162 -78 -101 -72 3139
-72 3240 0 2977 -6 3139 72 120 57 232 169 289 289 78 162 72 -101 72 3139 0
3240 6 2977 -72 3140 -56 118 -168 230 -289 288 -159 78 101 72 -3146 71
-2526 -1 -2917 -3 -2978 -15z m1736 -3197 c323 -566 592 -1034 598 -1040 8 -8
11 270 11 1031 l0 1042 290 0 290 0 0 -1495 0 -1495 -312 0 -313 1 -600 1050
c-329 578 -605 1058 -612 1067 -10 14 -12 -191 -13 -1050 l0 -1068 -290 0
-290 0 0 1495 0 1495 327 -2 328 -3 586 -1028z m3989 768 l0 -265 -455 0 -455
0 0 -1230 0 -1230 -310 0 -310 0 0 1230 0 1230 -450 0 -450 0 0 265 0 265
1215 0 1215 0 0 -265z"/>
</g>
</svg>
